<?xml version="1.0" standalone="no"?><svg xmlns="http://www.w3.org/2000/svg" viewBox="0 0 1440 320"><path fill="#a8cddb" fill-opacity="1" d="M0,32L24,58.7C48,85,96,139,144,181.3C192,224,240,256,288,234.7C336,213,384,139,432,133.3C480,128,528,192,576,181.3C624,171,672,85,720,74.7C768,64,816,128,864,160C912,192,960,192,1008,186.7C1056,181,1104,171,1152,186.7C1200,203,1248,245,1296,256C1344,267,1392,245,1416,234.7L1440,224L1440,320L1416,320C1392,320,1344,320,1296,320C1248,320,1200,320,1152,320C1104,320,1056,320,1008,320C960,320,912,320,864,320C816,320,768,320,720,320C672,320,624,320,576,320C528,320,480,320,432,320C384,320,336,320,288,320C240,320,192,320,144,320C96,320,48,320,24,320L0,320Z"></path></svg>